<?xml version="1.0"?>
<svg xmlns="http://www.w3.org/2000/svg" xmlns:xlink="http://www.w3.org/1999/xlink" xmlns:svgjs="http://svgjs.com/svgjs" version="1.1" width="512" height="512" x="0" y="0" viewBox="0 0 574.767 574.766" style="enable-background:new 0 0 512 512" xml:space="preserve" class=""><g>
<g xmlns="http://www.w3.org/2000/svg">
	<g>
		<path d="M574.767,287.383C574.767,128.918,445.849,0,287.383,0S0,128.918,0,287.383c0,158.465,128.918,287.383,287.383,287.383    S574.767,445.848,574.767,287.383z M287.383,528.867C154.228,528.867,45.9,420.54,45.9,287.383    C45.9,154.228,154.228,45.9,287.383,45.9s241.483,108.327,241.483,241.483C528.866,420.54,420.539,528.867,287.383,528.867z" fill="#ababab" data-original="#000000" style=""/>
		<path d="M344.385,92.541H230.363c-4.611,0-8.351,3.739-8.351,8.351v372.984c0,4.611,3.74,8.351,8.351,8.351h114.024    c4.611,0,8.351-3.739,8.351-8.351V100.892C352.735,96.28,348.996,92.541,344.385,92.541z" fill="#ababab" data-original="#000000" style=""/>
	</g>
</g>
<g xmlns="http://www.w3.org/2000/svg">
</g>
<g xmlns="http://www.w3.org/2000/svg">
</g>
<g xmlns="http://www.w3.org/2000/svg">
</g>
<g xmlns="http://www.w3.org/2000/svg">
</g>
<g xmlns="http://www.w3.org/2000/svg">
</g>
<g xmlns="http://www.w3.org/2000/svg">
</g>
<g xmlns="http://www.w3.org/2000/svg">
</g>
<g xmlns="http://www.w3.org/2000/svg">
</g>
<g xmlns="http://www.w3.org/2000/svg">
</g>
<g xmlns="http://www.w3.org/2000/svg">
</g>
<g xmlns="http://www.w3.org/2000/svg">
</g>
<g xmlns="http://www.w3.org/2000/svg">
</g>
<g xmlns="http://www.w3.org/2000/svg">
</g>
<g xmlns="http://www.w3.org/2000/svg">
</g>
<g xmlns="http://www.w3.org/2000/svg">
</g>
</g></svg>
